<svg enable-background="new 0 0 1296.1 325.8" viewBox="0 0 1296.1 325.8" xmlns="http://www.w3.org/2000/svg"><g fill="#fff"><path d="m567 93.9c-2.7-3-4.3-6.7-5.7-10.4-2.6-7.3-3.5-14.7-2-22.3s6.1-13.3 12-18c7-5.6 15-9.2 23.4-12.1 7.8-2.7 15.8-4.7 23.9-6.3 2.8-.6 4.5.4 5.1 3.1 2.3 11.8 4.1 23.6 3.8 35.7-.2 6.8-1.2 13.4-3.7 19.8-3.2 8.3-9.2 14-17.4 17.3-10.7 4.3-21.5 4.8-32.1-.4-.3-.2-.6-.4-.9-.6-.2-.5 0-1 .2-1.5 3.4-8.5 8.3-16.1 14.5-22.7 3.4-3.6 7.1-6.8 11-9.8 2.4-1.9 2.2-4.5-.5-6-1.6-.9-3-.3-4.3.6-1.6 1.2-3.1 2.4-4.6 3.7-8.6 7.3-15.3 16.1-20.6 26.2-.7 1.2-1 2.6-2.1 3.7z"/><path d="m102.2 301.3c-15.5 0-29.5-3.6-42-10.9s-22.3-17.2-29.5-29.7-10.7-26.4-10.7-41.7c0-15.5 3.6-29.4 10.8-41.8s17-22.2 29.5-29.3c12.5-7.2 26.5-10.8 42-10.8 12.2 0 23.4 2.3 33.8 6.8s19.3 11.1 26.9 19.7l-20 19.9c-4.9-5.7-10.8-10.1-17.9-13.1s-14.7-4.5-22.9-4.5c-9.9 0-18.8 2.3-26.5 6.8s-13.8 10.8-18.2 18.7c-4.4 8-6.6 17.1-6.6 27.5s2.2 19.6 6.6 27.5c4.4 8 10.5 14.3 18.2 18.9s16.6 7 26.5 7c8.4 0 16.1-1.5 23-4.5 7-3 13-7.3 18.1-13.1l19.6 19.9c-7.3 8.4-16.2 14.9-26.7 19.6s-21.8 7.1-34 7.1z"/><path d="m260.7 301.3c-15.3 0-29.1-3.6-41.5-10.9s-22.2-17.2-29.5-29.7-10.9-26.5-10.9-42c0-15.3 3.6-29 10.9-41.3s17.1-22.1 29.5-29.3c12.4-7.3 26.2-10.9 41.5-10.9 15.5 0 29.5 3.6 42 10.8s22.4 17 29.7 29.3c7.3 12.4 10.9 26.2 10.9 41.5 0 15.5-3.6 29.5-10.9 42s-17.2 22.4-29.7 29.7c-12.5 7.1-26.5 10.8-42 10.8zm0-28.9c10.2 0 19.1-2.3 26.9-7 7.7-4.6 13.8-11 18.2-19.1s6.6-17.3 6.6-27.7c0-10.2-2.3-19.2-6.8-27.2s-10.6-14.2-18.2-18.7-16.5-6.8-26.7-6.8c-9.7 0-18.5 2.3-26.2 6.8s-13.8 10.8-18.2 18.7c-4.4 8-6.6 17-6.6 27.2 0 10.4 2.2 19.6 6.6 27.7s10.5 14.4 18.2 19.1 16.5 7 26.2 7z"/><path d="m376.4 297.9v-236.7h29.8v236.8h-29.8z"/><path d="m435.5 167.6v-27.2h107.4v27.2zm38.8 130.3v-223.5h29.8v223.5z"/><path d="m572.1 297.9v-157.5h30.2v157.5z"/><path d="m700.4 297.9-72.3-157.5h33.2l58 133h-19.2l58.4-133h31.8l-72.3 157.5z"/><path d="m876.8 301.3c-14.6 0-27.7-3.6-39.3-10.8s-20.8-17-27.5-29.3c-6.7-12.4-10.1-26.3-10.1-41.8s3.4-29.4 10.1-41.8 15.9-22.2 27.5-29.5 24.7-10.9 39.3-10.9c11.9 0 22.6 2.5 32 7.5s17 11.8 22.7 20.6c5.7 8.7 9 18.9 9.6 30.3v47.4c-.7 11.3-3.8 21.3-9.5 30.2-5.6 8.8-13.2 15.8-22.7 20.7-9.4 4.9-20.1 7.4-32.1 7.4zm5-28.2c14.8 0 26.7-5 35.8-15.1s13.6-22.9 13.6-38.6c0-10.6-2.1-20-6.3-28.2s-10-14.5-17.4-19.1c-7.4-4.5-16.1-6.8-26-6.8s-18.7 2.3-26.4 7c-7.6 4.6-13.6 11-17.9 19.1s-6.5 17.3-6.5 27.7c0 10.6 2.2 20 6.5 28 4.3 8.1 10.3 14.4 18.1 19.1 7.7 4.6 16.6 6.9 26.5 6.9zm47.4 24.8v-42.4l5.6-38.5-5.6-38.1v-38.5h30.2v157.5z"/><path d="m1002.9 297.9v-157.5h29.8v157.5zm29.8-89.5-11.3-5.3c0-20.1 4.6-36.1 13.9-48.1 9.3-11.9 22.7-17.9 40.1-17.9 8 0 15.1 1.4 21.6 4.1 6.4 2.8 12.4 7.4 17.9 13.8l-19.6 20.2c-3.3-3.5-7-6.1-10.9-7.6-4-1.5-8.6-2.3-13.9-2.3-11.1 0-20.1 3.5-27.2 10.6s-10.6 17.9-10.6 32.5z"/><path d="m1203.8 301.3c-15.9 0-30.1-3.6-42.6-10.8s-22.4-17-29.7-29.3c-7.3-12.4-10.9-26.4-10.9-42.1 0-15.5 3.6-29.4 10.8-41.8s16.9-22.2 29.2-29.3c12.3-7.2 26-10.8 41.3-10.8 14.4 0 27.2 3.3 38.5 9.9s20.1 15.8 26.4 27.5 9.5 25.1 9.5 40.1c0 2.2-.1 4.6-.3 7.1s-.7 5.4-1.3 8.5h-133v-24.9h117.1l-10.9 9.6c0-10.6-1.9-19.6-5.6-27-3.8-7.4-9.1-13.2-15.9-17.2-6.9-4.1-15.1-6.1-24.9-6.1-10.2 0-19.1 2.2-26.9 6.6-7.7 4.4-13.7 10.6-17.9 18.6s-6.3 17.4-6.3 28.2c0 11.1 2.2 20.7 6.6 29s10.7 14.7 18.9 19.2 17.6 6.8 28.2 6.8c8.8 0 17-1.5 24.4-4.6s13.8-7.7 19.1-13.9l19.2 19.6c-7.7 8.8-17 15.6-27.9 20.2-11.1 4.5-22.7 6.9-35.1 6.9z"/></g></svg>